<mxfile host="app.diagrams.net" modified="2024-06-08T13:04:53.884Z" agent="Mozilla/5.0 (Windows NT 10.0; Win64; x64) AppleWebKit/537.36 (KHTML, like Gecko) Chrome/125.0.0.0 Safari/537.36 Edg/125.0.0.0" etag="edsZpIDruBO8zpzigoj3" version="24.5.2" type="github">
  <diagram name="第 1 页" id="7H51HgYcnkuUH7d4cdiX">
    <mxGraphModel dx="1554" dy="861" grid="1" gridSize="10" guides="1" tooltips="1" connect="1" arrows="1" fold="1" page="1" pageScale="1" pageWidth="827" pageHeight="1169" math="0" shadow="0">
      <root>
        <mxCell id="0" />
        <mxCell id="1" parent="0" />
        <mxCell id="WuS4YXsS0-R_oJ3zAx0K-1" value="" style="rounded=1;whiteSpace=wrap;html=1;" parent="1" vertex="1">
          <mxGeometry x="180" y="230" width="260" height="60" as="geometry" />
        </mxCell>
        <mxCell id="WuS4YXsS0-R_oJ3zAx0K-2" value="&lt;font face=&quot;Times New Roman&quot; style=&quot;font-size: 32px;&quot;&gt;Arduino UNO&lt;/font&gt;" style="text;html=1;align=center;verticalAlign=middle;whiteSpace=wrap;rounded=0;" parent="1" vertex="1">
          <mxGeometry x="175" y="245" width="270" height="30" as="geometry" />
        </mxCell>
      </root>
    </mxGraphModel>
  </diagram>
</mxfile>
